<?xml version="1.0" standalone="no"?>
<!DOCTYPE svg PUBLIC "-//W3C//DTD SVG 20010904//EN"
 "http://www.w3.org/TR/2001/REC-SVG-20010904/DTD/svg10.dtd">
<svg version="1.0" xmlns="http://www.w3.org/2000/svg"
 width="256.000000pt" height="219.000000pt" viewBox="0 0 256.000000 219.000000"
 preserveAspectRatio="xMidYMid meet">

<g transform="translate(0.000000,219.000000) scale(0.100000,-0.100000)"
fill="#000000" stroke="none">
<path d="M320 2172 c-158 -41 -267 -154 -305 -313 -12 -52 -15 -152 -15 -551
0 -269 1 -488 3 -488 2 0 46 14 98 30 112 37 397 124 454 139 l40 10 0 103 c1
115 15 184 55 275 174 386 655 530 1004 299 117 -78 216 -197 266 -320 12 -31
27 -56 34 -56 6 0 83 9 170 20 88 11 211 22 275 25 64 4 126 8 139 11 l22 4 0
218 c0 238 -10 308 -57 394 -31 57 -113 137 -171 167 -99 51 -102 51 -1057 50
-804 0 -896 -2 -955 -17z"/>
</g>
</svg>
